<svg width="512" height="512" viewBox="0 0 512 512" fill="none" xmlns="http://www.w3.org/2000/svg">
<g clip-path="url(#clip0)">
<path d="M497 211.99H431V512H497C505.28 512 512 505.28 512 497V226.99C512 218.71 505.28 211.99 497 211.99Z" fill="#219EBC"/>
<path d="M0 226.99V497C0 505.28 6.72 512 15 512H81V211.99H15C6.72 211.99 0 218.71 0 226.99Z" fill="#219EBC"/>
<path d="M201 357.58H241V512H201V357.58Z" fill="#219EBC"/>
<path d="M271 357.58H311V512H271V357.58Z" fill="#219EBC"/>
<path d="M201 134.13V197.68C214.5 197 228.51 198.79 241 204.55V148.56C230.94 134.58 212.78 133.26 201 134.13Z" fill="#219EBC"/>
<path d="M271 148.54V204.52C283.35 198.83 297.36 197.01 311 197.68V134.19C295.68 133.13 279.87 136.09 271 148.54Z" fill="#219EBC"/>
<path d="M425.18 65.101L261.47 1.02001C258.102 -0.299993 254.121 -0.379993 250.53 1.02001L86.82 65.101C79.1 68.121 75.29 76.821 78.31 84.532C81.33 92.252 90.03 96.052 97.75 93.032L111 87.847V512H171V342.58C171 334.3 177.72 327.58 186 327.58H326C334.28 327.58 341 334.3 341 342.58V512H401V87.892C419.464 95.039 417.7 94.072 419.71 94.072C425.71 94.072 431.37 90.452 433.69 84.532C436.71 76.822 432.9 68.121 425.18 65.101ZM341 214.83C341 224.63 331.75 231.79 322.27 229.36C322.07 229.31 311.39 226.68 299.12 227.85C284.69 229.22 274.86 234.88 269.06 245.14C263.28 255.39 248.6 255.2 242.94 245.14C228.52 219.59 190.17 229.24 189.78 229.35C180.28 231.82 171 224.64 171 214.83V121.28C171 114.45 175.61 108.48 182.22 106.76C183.74 106.36 197.62 102.92 214.65 104.34C231.35 105.73 245.33 111.31 256 120.68C266.67 111.31 280.65 105.73 297.35 104.34C314.38 102.92 328.25 106.37 329.78 106.76C336.39 108.48 341 114.45 341 121.28V214.83Z" fill="#219EBC"/>
</g>
<defs>
<clipPath id="clip0">
<rect width="512" height="512" fill="white"/>
</clipPath>
</defs>
</svg>
