<svg width="313" height="136" viewBox="0 0 313 136" fill="none" xmlns="http://www.w3.org/2000/svg">
<g filter="url(#filter0_d)">
<rect x="4" width="107" height="128" fill="#8CABFC"/>
<rect x="5" y="1" width="105" height="126" stroke="black" stroke-width="2"/>
</g>
<rect x="64.5" y="27.5" width="46" height="12" fill="#F1EC75" stroke="black"/>
<rect x="64.5" y="53.5" width="46" height="13" fill="#76F4ED" stroke="black"/>
<path d="M131.684 42.9805V53H128.309V27.4062H137.748C140.549 27.4062 142.74 28.1211 144.322 29.5508C145.916 30.9805 146.713 32.873 146.713 35.2285C146.713 37.7129 145.934 39.6289 144.375 40.9766C142.828 42.3125 140.607 42.9805 137.713 42.9805H131.684ZM131.684 40.2207H137.748C139.553 40.2207 140.936 39.7988 141.896 38.9551C142.857 38.0996 143.338 36.8691 143.338 35.2637C143.338 33.7402 142.857 32.5215 141.896 31.6074C140.936 30.6934 139.617 30.2188 137.941 30.1836H131.684V40.2207ZM162.252 51.1191C160.986 52.6074 159.129 53.3516 156.68 53.3516C154.652 53.3516 153.105 52.7656 152.039 51.5938C150.984 50.4102 150.451 48.6641 150.439 46.3555V33.9805H153.691V46.2676C153.691 49.1504 154.863 50.5918 157.207 50.5918C159.691 50.5918 161.344 49.666 162.164 47.8145V33.9805H165.416V53H162.322L162.252 51.1191ZM181.447 47.9551C181.447 47.0762 181.113 46.3965 180.445 45.916C179.789 45.4238 178.635 45.002 176.982 44.6504C175.342 44.2988 174.035 43.877 173.062 43.3848C172.102 42.8926 171.387 42.3066 170.918 41.627C170.461 40.9473 170.232 40.1387 170.232 39.2012C170.232 37.6426 170.889 36.3242 172.201 35.2461C173.525 34.168 175.213 33.6289 177.264 33.6289C179.42 33.6289 181.166 34.1855 182.502 35.2988C183.85 36.4121 184.523 37.8359 184.523 39.5703H181.254C181.254 38.6797 180.873 37.9121 180.111 37.2676C179.361 36.623 178.412 36.3008 177.264 36.3008C176.08 36.3008 175.154 36.5586 174.486 37.0742C173.818 37.5898 173.484 38.2637 173.484 39.0957C173.484 39.8809 173.795 40.4727 174.416 40.8711C175.037 41.2695 176.156 41.6504 177.773 42.0137C179.402 42.377 180.721 42.8105 181.729 43.3145C182.736 43.8184 183.48 44.4277 183.961 45.1426C184.453 45.8457 184.699 46.707 184.699 47.7266C184.699 49.4258 184.02 50.791 182.66 51.8223C181.301 52.8418 179.537 53.3516 177.369 53.3516C175.846 53.3516 174.498 53.082 173.326 52.543C172.154 52.0039 171.234 51.2539 170.566 50.293C169.91 49.3203 169.582 48.2715 169.582 47.1465H172.834C172.893 48.2363 173.326 49.1035 174.135 49.748C174.955 50.3809 176.033 50.6973 177.369 50.6973C178.6 50.6973 179.584 50.4512 180.322 49.959C181.072 49.4551 181.447 48.7871 181.447 47.9551ZM193.348 29.375V33.9805H196.898V36.4941H193.348V48.2891C193.348 49.0508 193.506 49.625 193.822 50.0117C194.139 50.3867 194.678 50.5742 195.439 50.5742C195.814 50.5742 196.33 50.5039 196.986 50.3633V53C196.131 53.2344 195.299 53.3516 194.49 53.3516C193.037 53.3516 191.941 52.9121 191.203 52.0332C190.465 51.1543 190.096 49.9062 190.096 48.2891V36.4941H186.633V33.9805H190.096V29.375H193.348ZM212.455 53C212.268 52.625 212.115 51.957 211.998 50.9961C210.486 52.5664 208.682 53.3516 206.584 53.3516C204.709 53.3516 203.168 52.8242 201.961 51.7695C200.766 50.7031 200.168 49.3555 200.168 47.7266C200.168 45.7461 200.918 44.2109 202.418 43.1211C203.93 42.0195 206.051 41.4688 208.781 41.4688H211.945V39.9746C211.945 38.8379 211.605 37.9355 210.926 37.2676C210.246 36.5879 209.244 36.248 207.92 36.248C206.76 36.248 205.787 36.541 205.002 37.127C204.217 37.7129 203.824 38.4219 203.824 39.2539H200.555C200.555 38.3047 200.889 37.3906 201.557 36.5117C202.236 35.6211 203.15 34.918 204.299 34.4023C205.459 33.8867 206.73 33.6289 208.113 33.6289C210.305 33.6289 212.021 34.1797 213.264 35.2812C214.506 36.3711 215.15 37.877 215.197 39.7988V48.5527C215.197 50.2988 215.42 51.6875 215.865 52.7188V53H212.455ZM207.059 50.5215C208.078 50.5215 209.045 50.2578 209.959 49.7305C210.873 49.2031 211.535 48.5176 211.945 47.6738V43.7715H209.396C205.412 43.7715 203.42 44.9375 203.42 47.2695C203.42 48.2891 203.76 49.0859 204.439 49.6602C205.119 50.2344 205.992 50.5215 207.059 50.5215ZM225.604 44.1934L223.564 46.3203V53H220.312V26H223.564V42.3301L225.305 40.2383L231.229 33.9805H235.184L227.783 41.9258L236.045 53H232.23L225.604 44.1934ZM250.283 53C250.096 52.625 249.943 51.957 249.826 50.9961C248.314 52.5664 246.51 53.3516 244.412 53.3516C242.537 53.3516 240.996 52.8242 239.789 51.7695C238.594 50.7031 237.996 49.3555 237.996 47.7266C237.996 45.7461 238.746 44.2109 240.246 43.1211C241.758 42.0195 243.879 41.4688 246.609 41.4688H249.773V39.9746C249.773 38.8379 249.434 37.9355 248.754 37.2676C248.074 36.5879 247.072 36.248 245.748 36.248C244.588 36.248 243.615 36.541 242.83 37.127C242.045 37.7129 241.652 38.4219 241.652 39.2539H238.383C238.383 38.3047 238.717 37.3906 239.385 36.5117C240.064 35.6211 240.979 34.918 242.127 34.4023C243.287 33.8867 244.559 33.6289 245.941 33.6289C248.133 33.6289 249.85 34.1797 251.092 35.2812C252.334 36.3711 252.979 37.877 253.025 39.7988V48.5527C253.025 50.2988 253.248 51.6875 253.693 52.7188V53H250.283ZM244.887 50.5215C245.906 50.5215 246.873 50.2578 247.787 49.7305C248.701 49.2031 249.363 48.5176 249.773 47.6738V43.7715H247.225C243.24 43.7715 241.248 44.9375 241.248 47.2695C241.248 48.2891 241.588 49.0859 242.268 49.6602C242.947 50.2344 243.82 50.5215 244.887 50.5215Z" fill="black"/>
<path d="M153.963 93V67.4062H162.33C165.107 67.4062 167.193 67.9805 168.588 69.1289C169.994 70.2773 170.697 71.9766 170.697 74.2266C170.697 75.4219 170.357 76.4824 169.678 77.4082C168.998 78.3223 168.072 79.0312 166.9 79.5352C168.283 79.9219 169.373 80.6602 170.17 81.75C170.979 82.8281 171.383 84.1172 171.383 85.6172C171.383 87.9141 170.639 89.7188 169.15 91.0312C167.662 92.3438 165.559 93 162.84 93H153.963ZM157.338 81.0293V90.2402H162.91C164.48 90.2402 165.717 89.8359 166.619 89.0273C167.533 88.207 167.99 87.082 167.99 85.6523C167.99 82.5703 166.314 81.0293 162.963 81.0293H157.338ZM157.338 78.3223H162.436C163.912 78.3223 165.09 77.9531 165.969 77.2148C166.859 76.4766 167.305 75.4746 167.305 74.209C167.305 72.8027 166.895 71.7832 166.074 71.1504C165.254 70.5059 164.006 70.1836 162.33 70.1836H157.338V78.3223ZM183.775 93.3516C181.197 93.3516 179.1 92.5078 177.482 90.8203C175.865 89.1211 175.057 86.8535 175.057 84.0176V83.4199C175.057 81.5332 175.414 79.8516 176.129 78.375C176.855 76.8867 177.863 75.7266 179.152 74.8945C180.453 74.0508 181.859 73.6289 183.371 73.6289C185.844 73.6289 187.766 74.4434 189.137 76.0723C190.508 77.7012 191.193 80.0332 191.193 83.0684V84.4219H178.309C178.355 86.2969 178.9 87.8145 179.943 88.9746C180.998 90.123 182.334 90.6973 183.951 90.6973C185.1 90.6973 186.072 90.4629 186.869 89.9941C187.666 89.5254 188.363 88.9043 188.961 88.1309L190.947 89.6777C189.354 92.127 186.963 93.3516 183.775 93.3516ZM183.371 76.3008C182.059 76.3008 180.957 76.7812 180.066 77.7422C179.176 78.6914 178.625 80.0273 178.414 81.75H187.941V81.5039C187.848 79.8516 187.402 78.5742 186.605 77.6719C185.809 76.7578 184.73 76.3008 183.371 76.3008ZM204.166 76.8984C203.674 76.8164 203.141 76.7754 202.566 76.7754C200.434 76.7754 198.986 77.6836 198.225 79.5V93H194.973V73.9805H198.137L198.189 76.1777C199.256 74.4785 200.768 73.6289 202.725 73.6289C203.357 73.6289 203.838 73.7109 204.166 73.875V76.8984ZM218.246 87.9551C218.246 87.0762 217.912 86.3965 217.244 85.916C216.588 85.4238 215.434 85.002 213.781 84.6504C212.141 84.2988 210.834 83.877 209.861 83.3848C208.9 82.8926 208.186 82.3066 207.717 81.627C207.26 80.9473 207.031 80.1387 207.031 79.2012C207.031 77.6426 207.688 76.3242 209 75.2461C210.324 74.168 212.012 73.6289 214.062 73.6289C216.219 73.6289 217.965 74.1855 219.301 75.2988C220.648 76.4121 221.322 77.8359 221.322 79.5703H218.053C218.053 78.6797 217.672 77.9121 216.91 77.2676C216.16 76.623 215.211 76.3008 214.062 76.3008C212.879 76.3008 211.953 76.5586 211.285 77.0742C210.617 77.5898 210.283 78.2637 210.283 79.0957C210.283 79.8809 210.594 80.4727 211.215 80.8711C211.836 81.2695 212.955 81.6504 214.572 82.0137C216.201 82.377 217.52 82.8105 218.527 83.3145C219.535 83.8184 220.279 84.4277 220.76 85.1426C221.252 85.8457 221.498 86.707 221.498 87.7266C221.498 89.4258 220.818 90.791 219.459 91.8223C218.1 92.8418 216.336 93.3516 214.168 93.3516C212.645 93.3516 211.297 93.082 210.125 92.543C208.953 92.0039 208.033 91.2539 207.365 90.293C206.709 89.3203 206.381 88.2715 206.381 87.1465H209.633C209.691 88.2363 210.125 89.1035 210.934 89.748C211.754 90.3809 212.832 90.6973 214.168 90.6973C215.398 90.6973 216.383 90.4512 217.121 89.959C217.871 89.4551 218.246 88.7871 218.246 87.9551ZM237.477 93C237.289 92.625 237.137 91.957 237.02 90.9961C235.508 92.5664 233.703 93.3516 231.605 93.3516C229.73 93.3516 228.189 92.8242 226.982 91.7695C225.787 90.7031 225.189 89.3555 225.189 87.7266C225.189 85.7461 225.939 84.2109 227.439 83.1211C228.951 82.0195 231.072 81.4688 233.803 81.4688H236.967V79.9746C236.967 78.8379 236.627 77.9355 235.947 77.2676C235.268 76.5879 234.266 76.248 232.941 76.248C231.781 76.248 230.809 76.541 230.023 77.127C229.238 77.7129 228.846 78.4219 228.846 79.2539H225.576C225.576 78.3047 225.91 77.3906 226.578 76.5117C227.258 75.6211 228.172 74.918 229.32 74.4023C230.48 73.8867 231.752 73.6289 233.135 73.6289C235.326 73.6289 237.043 74.1797 238.285 75.2812C239.527 76.3711 240.172 77.877 240.219 79.7988V88.5527C240.219 90.2988 240.441 91.6875 240.887 92.7188V93H237.477ZM232.08 90.5215C233.1 90.5215 234.066 90.2578 234.98 89.7305C235.895 89.2031 236.557 88.5176 236.967 87.6738V83.7715H234.418C230.434 83.7715 228.441 84.9375 228.441 87.2695C228.441 88.2891 228.781 89.0859 229.461 89.6602C230.141 90.2344 231.014 90.5215 232.08 90.5215ZM248.375 73.9805L248.463 76.0898C249.857 74.4492 251.738 73.6289 254.105 73.6289C256.766 73.6289 258.576 74.6484 259.537 76.6875C260.17 75.7734 260.99 75.0352 261.998 74.4727C263.018 73.9102 264.219 73.6289 265.602 73.6289C269.773 73.6289 271.895 75.8379 271.965 80.2559V93H268.713V80.4492C268.713 79.0898 268.402 78.0762 267.781 77.4082C267.16 76.7285 266.117 76.3887 264.652 76.3887C263.445 76.3887 262.443 76.752 261.646 77.4785C260.85 78.1934 260.387 79.1602 260.258 80.3789V93H256.988V80.5371C256.988 77.7715 255.635 76.3887 252.928 76.3887C250.795 76.3887 249.336 77.2969 248.551 79.1133V93H245.299V73.9805H248.375ZM288.629 93C288.441 92.625 288.289 91.957 288.172 90.9961C286.66 92.5664 284.855 93.3516 282.758 93.3516C280.883 93.3516 279.342 92.8242 278.135 91.7695C276.939 90.7031 276.342 89.3555 276.342 87.7266C276.342 85.7461 277.092 84.2109 278.592 83.1211C280.104 82.0195 282.225 81.4688 284.955 81.4688H288.119V79.9746C288.119 78.8379 287.779 77.9355 287.1 77.2676C286.42 76.5879 285.418 76.248 284.094 76.248C282.934 76.248 281.961 76.541 281.176 77.127C280.391 77.7129 279.998 78.4219 279.998 79.2539H276.729C276.729 78.3047 277.062 77.3906 277.73 76.5117C278.41 75.6211 279.324 74.918 280.473 74.4023C281.633 73.8867 282.904 73.6289 284.287 73.6289C286.479 73.6289 288.195 74.1797 289.438 75.2812C290.68 76.3711 291.324 77.877 291.371 79.7988V88.5527C291.371 90.2988 291.594 91.6875 292.039 92.7188V93H288.629ZM283.232 90.5215C284.252 90.5215 285.219 90.2578 286.133 89.7305C287.047 89.2031 287.709 88.5176 288.119 87.6738V83.7715H285.57C281.586 83.7715 279.594 84.9375 279.594 87.2695C279.594 88.2891 279.934 89.0859 280.613 89.6602C281.293 90.2344 282.166 90.5215 283.232 90.5215Z" fill="black"/>
<defs>
<filter id="filter0_d" x="0" y="0" width="115" height="136" filterUnits="userSpaceOnUse" color-interpolation-filters="sRGB">
<feFlood flood-opacity="0" result="BackgroundImageFix"/>
<feColorMatrix in="SourceAlpha" type="matrix" values="0 0 0 0 0 0 0 0 0 0 0 0 0 0 0 0 0 0 127 0" result="hardAlpha"/>
<feOffset dy="4"/>
<feGaussianBlur stdDeviation="2"/>
<feComposite in2="hardAlpha" operator="out"/>
<feColorMatrix type="matrix" values="0 0 0 0 0 0 0 0 0 0 0 0 0 0 0 0 0 0 0.25 0"/>
<feBlend mode="normal" in2="BackgroundImageFix" result="effect1_dropShadow"/>
<feBlend mode="normal" in="SourceGraphic" in2="effect1_dropShadow" result="shape"/>
</filter>
</defs>
</svg>
